<?xml version="1.0" encoding="utf-8"?>
<!-- Generator: Adobe Illustrator 19.0.0, SVG Export Plug-In . SVG Version: 6.00 Build 0)  -->
<svg version="1.1" baseProfile="tiny" id="Layer_1" xmlns="http://www.w3.org/2000/svg" xmlns:xlink="http://www.w3.org/1999/xlink"
	 x="0px" y="0px" viewBox="0 0 64 64" xml:space="preserve">
<rect x="-0.5" y="0.5" fill="none" width="64" height="64"/>
<path id="XMLID_154_" fill="#FFFFFF" d="M21.9,2.6L11.3,5.5c-0.7,0.2-1.2,0.9-1,1.7c0.2,0.7,0.9,1.2,1.7,1l0.2-0.1L19,33.7l5.4,4.6
	l2.9,10.7c0.1,0.4,0.5,0.8,0.8,0.9l1.4,5.1l-0.6,0.1l0.4,1.7l2.6-0.7l-0.4-1.7l-0.4,0.1l-1.4-5.1c0.2-0.3,0.2-0.7,0.1-1.1L27,37.6
	l2.4-6.6L22.5,5.3l0.1,0c0.7-0.2,1.2-0.9,1-1.7C23.4,2.8,22.7,2.4,21.9,2.6z M26.4,35.4l-0.2-0.7c-0.2-0.7-0.9-1.2-1.7-1
	c-0.7,0.2-1.2,0.9-1,1.7l0.2,0.7L20.2,33l-1.9-7.2l7.9-2.1l1.9,7.2L26.4,35.4z M25.7,22.2l-7.9,2.1L13.4,7.7l7.9-2.1L25.7,22.2z"/>
<path id="XMLID_145_" fill="#FFFFFF" d="M52.4,11.3L41.7,8.4c-0.7-0.2-1.5,0.2-1.7,1c-0.2,0.7,0.2,1.5,1,1.7l0.2,0.1l-6.9,25.7
	l2.4,6.6L33.9,54c-0.1,0.4,0,0.9,0.3,1.2l-1.4,5.1l-0.6-0.1l-0.4,1.7l2.6,0.7l0.4-1.7l-0.4-0.1l1.4-5.1c0.3-0.2,0.6-0.5,0.7-0.9
	l2.9-10.7l5.4-4.6l6.9-25.7l0.1,0c0.7,0.2,1.5-0.2,1.7-1C53.6,12.2,53.1,11.5,52.4,11.3z M40,41.9l0.2-0.7c0.2-0.7-0.2-1.5-1-1.7
	c-0.7-0.2-1.5,0.2-1.7,1l-0.2,0.7l-1.6-4.5l1.9-7.2l7.9,2.1l-1.9,7.2L40,41.9z M45.9,30.1L38.1,28l4.4-16.6l7.9,2.1L45.9,30.1z"/>
</svg>
