<?xml version="1.0" encoding="utf-8"?>
<!-- Generator: Adobe Illustrator 19.0.0, SVG Export Plug-In . SVG Version: 6.00 Build 0)  -->
<svg version="1.1" baseProfile="tiny" id="Layer_1" xmlns="http://www.w3.org/2000/svg" xmlns:xlink="http://www.w3.org/1999/xlink"
	 x="0px" y="0px" viewBox="0 0 48 48" xml:space="preserve">
<rect x="0" y="0" fill="none" width="48" height="48"/>
<g id="XMLID_43_">
	<path id="XMLID_44_" fill="#969595" d="M24,7.6C14.9,7.6,7.6,14.9,7.6,24c0,9.1,7.4,16.4,16.4,16.4c9.1,0,16.4-7.4,16.4-16.4
		C40.4,14.9,33.1,7.6,24,7.6z M31.2,27.9c0.3,0.3,0.3,0.8,0,1.1L29,31.2c-0.3,0.3-0.8,0.3-1.1,0L24,27.3l-3.9,3.9
		c-0.3,0.3-0.8,0.3-1.1,0L16.8,29c-0.3-0.3-0.3-0.8,0-1.1l3.9-3.9l-3.9-3.9c-0.3-0.3-0.3-0.8,0-1.1l2.2-2.2c0.3-0.3,0.8-0.3,1.1,0
		l3.9,3.9l3.9-3.9c0.3-0.3,0.8-0.3,1.1,0l2.2,2.2c0.3,0.3,0.3,0.8,0,1.1L27.3,24L31.2,27.9z"/>
</g>
</svg>
