<?xml version="1.0" encoding="utf-8"?>
<!-- Generator: Adobe Illustrator 19.0.0, SVG Export Plug-In . SVG Version: 6.00 Build 0)  -->
<svg version="1.1" baseProfile="tiny" id="Layer_1" xmlns="http://www.w3.org/2000/svg" xmlns:xlink="http://www.w3.org/1999/xlink"
	 x="0px" y="0px" viewBox="0 0 48 48" xml:space="preserve">
<rect x="0.2" y="-0.2" fill="none" width="48" height="48"/>
<g id="XMLID_88_">
	<path id="XMLID_220_" fill="#FFFFFF" d="M22.4,16.6c-2.4,0-4.4,1.2-5.7,3c0.1,0.1,0.3,0.2,0.3,0.4c0,0.2,0,1.2,0.7,2.1
		c0,0,0.1,0,0.1,0c0.2,0.1,1.5,0.3,2.7-0.5c0.9-0.7,1.2-1.6,1.2-2c0-0.2,0.3-0.4,0.5-0.3c0.2,0,0.4,0.3,0.3,0.5
		c-0.1,0.5-0.4,1.7-1.6,2.5c-0.7,0.5-1.4,0.7-2,0.8c0.4,0.2,0.8,0.2,1,0.2c0.2,0,0.4,0.2,0.4,0.4c0,0.2-0.2,0.4-0.4,0.4
		c-0.5,0-1.6-0.1-2.6-1c-0.9-0.8-1.1-1.8-1.2-2.4c0,0,0,0,0,0C12.7,21,10,24,10,27.7c0,1.5,0.5,2.9,1.3,4.1c0.1-0.2,0.3-0.3,0.5-0.3
		c0.4,0,2.2,0,3.5-1.5c0,0,0,0,0,0c0.1-0.5,0.1-1.5-0.6-2.4c-0.7-0.9-1.6-1.2-2-1.2c-0.2,0-0.4-0.3-0.3-0.5c0-0.2,0.3-0.4,0.5-0.3
		c0.5,0.1,1.7,0.4,2.5,1.6c0.4,0.5,0.6,1.1,0.7,1.6c0.3-0.8,0.3-1.4,0.3-1.8c0-0.3,0.3-0.6,0.6-0.6c0.3,0,0.6,0.3,0.6,0.6
		c0,0.7-0.1,2.6-1.5,4.1c-1.5,1.7-3.5,2.1-4.3,2.1c0,0,0,0,0,0c0,0,0,0,0,0.1c0,2.2,1,4,2.5,5.4c0.2-0.8,0.8-2,1.9-2.8
		c1.8-1.4,3.7-1.3,4.5-1.2c0.1,0,0.1,0,0.1,0c0.3,0.1,0.5,0.4,0.5,0.7c-0.1,0.3-0.4,0.5-0.7,0.5c-0.3-0.1-2-0.3-3.5,0.7
		c0.3,0.4,1,1.1,2.1,1.2c1.1,0.2,2-0.3,2.3-0.5c0.2-0.1,0.5-0.1,0.6,0.1c0.1,0.2,0.1,0.5-0.1,0.6c-0.4,0.3-1.5,0.9-2.9,0.7
		c-1.3-0.2-2.2-1-2.6-1.5c-0.8,0.8-1,1.7-1.2,2.2c0,0,0,0,0,0c0.4,3.7,3.2,6.6,7,6.6c0.3,0,0.6,0,0.6-0.1v-29
		C23,16.6,22.7,16.6,22.4,16.6z"/>
	<path id="XMLID_219_" fill="#FFFFFF" d="M37.9,27.7c0-3.1-2-5.8-4.8-6.8c-0.4,0.3-1.8,1.3-2,3.1c-0.1,0.4-0.1,0.8,0,1.2
		c0.3,0.4,1,1.1,2.1,1.2c1.1,0.2,2-0.3,2.3-0.5c0.2-0.1,0.5-0.1,0.6,0.1c0.1,0.2,0.1,0.5-0.1,0.6c-0.4,0.3-1.5,0.9-2.9,0.7
		c-0.6-0.1-1.1-0.3-1.5-0.5c0.1,0.2,0.2,0.4,0.3,0.5c0.2,0.3,0.1,0.6-0.2,0.8c-0.3,0.2-0.6,0.1-0.8-0.2c-0.4-0.6-1.2-2.1-0.9-4
		c0-0.1,0-0.1,0-0.2c-0.1-0.5-0.2-1-0.6-1.6c-0.7-0.9-1.6-1.2-2-1.2c-0.2,0-0.4-0.3-0.3-0.5c0-0.2,0.3-0.4,0.5-0.3
		c0.5,0.1,1.7,0.4,2.5,1.6c0.2,0.2,0.3,0.4,0.4,0.7c0.4-0.7,0.8-1.3,1.3-1.7c0,0,0,0-0.1,0c-1.2-2.3-3.8-3.9-6.6-3.9
		c-0.3,0-1.1,0-1.1,0.1v29c0,0,0.8,0.1,1.1,0.1c3.8,0,7-2.9,7.3-6.6c-0.5-0.2-1-0.4-1.6-0.8c0.1,0.6,0,1,0,1.3c0,0,0,0.1,0,0.1
		c-0.1,0.2-0.3,0.4-0.5,0.3c-0.2-0.1-0.4-0.3-0.3-0.5c0.1-0.2,0.3-1.5-0.5-2.7c-0.7-0.9-1.6-1.2-2-1.2c-0.2,0-0.4-0.3-0.3-0.5
		c0-0.2,0.3-0.4,0.5-0.3c0.2,0,0.7,0.2,1.2,0.4c-0.3-1.1-0.2-2.1-0.1-2.6c0-0.1,0-0.1,0-0.1c0.1-0.3,0.4-0.5,0.7-0.4
		c0.3,0.1,0.5,0.4,0.4,0.7c-0.1,0.3-0.4,2.1,0.8,3.7c0.9,1.3,2.3,1.6,2.8,1.7c0.1,0,0.2,0.1,0.2,0.1C35.1,37,36,35,36,32.9
		c0-0.1,0-0.2,0-0.3C37.2,31.3,37.9,29.5,37.9,27.7z"/>
	<g id="XMLID_217_">
		<path id="XMLID_218_" fill="#FFFFFF" d="M24,13.5c-0.3,0-0.6-0.1-0.8-0.4c-0.3-0.4-0.3-1,0.1-1.4c0.4-0.4,1.3-1.3,1.2-2.1
			c0-0.4-0.4-0.8-1.1-1.1c-1.3-0.7-2-1.6-2.1-2.7c-0.1-1.9,1.8-3.3,2-3.5c0.4-0.3,1-0.2,1.4,0.2c0.3,0.4,0.2,1-0.2,1.4
			c-0.4,0.3-1.3,1.1-1.2,1.8c0,0.5,0.6,0.8,1.1,1.1c1.6,0.8,2,1.9,2.1,2.6c0.2,2-1.7,3.6-1.9,3.8C24.4,13.5,24.2,13.5,24,13.5z"/>
	</g>
	<g id="XMLID_177_">
		<path id="XMLID_209_" fill="#FFFFFF" d="M34.5,17.2c-0.2-0.2-0.3-0.5-0.3-0.8c0.1-0.5,0.5-0.9,1.1-0.9c0.6,0.1,1.9,0,2.3-0.6
			c0.3-0.3,0.3-0.8,0-1.6c-0.5-1.4-0.3-2.6,0.4-3.4c1.2-1.4,3.6-1.1,3.9-1c0.5,0.1,0.9,0.6,0.8,1.1c-0.1,0.5-0.6,0.9-1.1,0.8
			c-0.5-0.1-1.7-0.1-2.1,0.4c-0.3,0.3-0.2,1,0,1.5c0.5,1.7,0.1,2.8-0.4,3.4c-1.2,1.5-3.8,1.3-4,1.3C34.9,17.5,34.7,17.4,34.5,17.2z"
			/>
	</g>
	<g id="XMLID_102_">
		<path id="XMLID_174_" fill="#FFFFFF" d="M13.9,18.3c-0.2,0.2-0.5,0.3-0.8,0.3c-0.5-0.1-0.9-0.5-0.9-1.1c0.1-0.6,0-1.9-0.6-2.3
			c-0.3-0.3-0.8-0.3-1.6,0c-1.4,0.5-2.6,0.3-3.4-0.4c-1.4-1.2-1.1-3.6-1-3.9c0.1-0.5,0.6-0.9,1.1-0.8c0.5,0.1,0.9,0.6,0.8,1.1
			c-0.1,0.5-0.1,1.7,0.4,2.1c0.3,0.3,1,0.2,1.5,0c1.7-0.5,2.8-0.1,3.4,0.4c1.5,1.2,1.3,3.8,1.3,4C14.1,18,14,18.2,13.9,18.3z"/>
	</g>
</g>
</svg>
