<?xml version="1.0" encoding="utf-8"?>
<!-- Generator: Adobe Illustrator 19.0.0, SVG Export Plug-In . SVG Version: 6.00 Build 0)  -->
<svg version="1.1" baseProfile="tiny" id="Layer_1" xmlns="http://www.w3.org/2000/svg" xmlns:xlink="http://www.w3.org/1999/xlink"
	 x="0px" y="0px" viewBox="0 0 106.5 106.5" xml:space="preserve">
<rect x="0.7" y="1.1" fill="none" width="105.7" height="105.7"/>
<g id="XMLID_58_">
	<path id="XMLID_262_" fill="#A3A3A3" d="M23.5,37.3c0-5.1-2.3-9.6-5.3-11.6v13.5h-2V24.8c0-0.1-0.9-0.2-1.4-0.2
		c-0.6,0-0.6,0.1-1.6,0.2v14.4h-2V25.8c-4,2-5.2,6.4-5.2,11.5c0,5.1,1.2,9.5,5.2,11.5v33.1c0,1.2,1.1,1.4,2.3,1.4h3.3
		c1.2,0,1.4-0.2,1.4-1.4v-33C21.3,46.9,23.5,42.5,23.5,37.3z"/>
	<path id="XMLID_261_" fill="#A3A3A3" d="M101.4,24.6c-7.3,0-13.1,7.2-13.1,16c0,5.4,1.9,10.3,5.9,13.2v28.1c0,1.2,0.7,1.4,1.9,1.4
		h3.3c1.2,0,1.8-0.2,1.8-1.4V56.7C101.3,56.7,101.4,24.6,101.4,24.6z"/>
	<g id="XMLID_62_">
		<path id="XMLID_64_" fill="#A3A3A3" d="M55.1,23.9C38.5,23.9,25,37.4,25,54s13.5,30.1,30.1,30.1c16.6,0,30.1-13.5,30.1-30.1
			S71.7,23.9,55.1,23.9z M55.1,80.5c-14.7,0-26.6-11.9-26.6-26.6s11.9-26.6,26.6-26.6c14.7,0,26.6,11.9,26.6,26.6
			S69.8,80.5,55.1,80.5z"/>
		<circle id="XMLID_63_" fill="#A3A3A3" cx="55.1" cy="54" r="22.9"/>
	</g>
</g>
</svg>
