<?xml version="1.0" encoding="utf-8"?>
<!-- Generator: Adobe Illustrator 19.0.0, SVG Export Plug-In . SVG Version: 6.00 Build 0)  -->
<svg version="1.1" baseProfile="basic" xmlns="http://www.w3.org/2000/svg" xmlns:xlink="http://www.w3.org/1999/xlink" x="0px"
	 y="0px" viewBox="0 0 48 48" xml:space="preserve">
<g id="Layer_2">
</g>
<g id="Layer_1">
	<rect fill="none" width="48" height="48"/>
	<g id="XMLID_449_">
		<path id="XMLID_474_" fill-rule="evenodd" clip-rule="evenodd" fill="#FFFFFF" d="M5.6,17.9c0.3-0.1,0.7-0.4,1-0.4
			c0.6-0.1,1.2,0,1.9,0c0,3.4,0,6.7,0,10.1c-0.8,0-1.6,0-2.3,0c-0.2,0-0.3-0.3-0.5-0.4C5.6,24,5.6,21,5.6,17.9z"/>
		<path id="XMLID_466_" fill-rule="evenodd" clip-rule="evenodd" fill="#FFFFFF" d="M40.4,27.1c-0.3,0.1-0.7,0.4-1,0.4
			c-0.6,0.1-1.2,0-1.9,0c0-3.4,0-6.7,0-10.1c0.8,0,1.6,0,2.3,0c0.2,0,0.3,0.3,0.5,0.4C40.4,21,40.4,24,40.4,27.1z"/>
		<path id="XMLID_462_" fill-rule="evenodd" clip-rule="evenodd" fill="#FFFFFF" d="M9.9,22.5c0-2.3,0-4.6,0-6.9
			c0-0.8,0.2-1.1,1-1.1c1.3,0,2.5,0,3.8,0c0.7,0,1,0.3,1,1c0,4.7,0,9.3,0,14c0,0.8-0.2,1-1,1c-1.3,0-2.6,0-3.9,0c-0.7,0-1-0.2-1-1
			C9.9,27.2,9.9,24.8,9.9,22.5z"/>
		<path id="XMLID_459_" fill-rule="evenodd" clip-rule="evenodd" fill="#FFFFFF" d="M36.1,22.5c0,2.3,0,4.6,0,6.9c0,0.8-0.2,1-1.1,1
			c-1.2,0-2.5,0-3.7,0c-0.8,0-1-0.2-1-1c0-4.6,0-9.3,0-13.9c0-0.8,0.2-1,1.1-1c1.2,0,2.4,0,3.7,0c0.9,0,1.1,0.2,1.1,1.1
			C36.1,17.9,36.1,20.2,36.1,22.5z"/>
		<path id="XMLID_458_" fill-rule="evenodd" clip-rule="evenodd" fill="#FFFFFF" d="M17.2,20.3c3.9,0,7.7,0,11.5,0
			c0,1.4,0,2.8,0,4.3c-3.8,0-7.6,0-11.5,0C17.2,23.2,17.2,21.8,17.2,20.3z"/>
		<rect id="XMLID_457_" x="2" y="20.3" fill="#FFFFFF" width="2.1" height="4.4"/>
		<rect id="XMLID_454_" x="41.9" y="20.3" fill="#FFFFFF" width="2.1" height="4.4"/>
	</g>
</g>
</svg>
