<?xml version="1.0" encoding="utf-8"?>
<!-- Generator: Adobe Illustrator 19.0.0, SVG Export Plug-In . SVG Version: 6.00 Build 0)  -->
<svg version="1.1" baseProfile="tiny" id="Layer_1" xmlns="http://www.w3.org/2000/svg" xmlns:xlink="http://www.w3.org/1999/xlink"
	 x="0px" y="0px" viewBox="0 0 48 48" xml:space="preserve">
<rect x="0" y="0.1" fill="none" width="48" height="48"/>
<path id="XMLID_226_" fill="#FFFFFF" d="M45.3,22.1c0-5.3-4.3-9.7-9.7-9.7c-4.7,0-8.6,3.3-9.5,7.7c-3.9,0.1-7.3,2.2-9.1,5.4l0,0
	l-5.5-8.8c1.7-0.9,2.9-2.7,2.9-4.8c0-3-2.4-5.4-5.4-5.4c-2.5,0-4.5,1.7-5.2,3.9C1.6,15,3.2,20.4,4.2,27.4
	c1.3,8.4,7.2,14.3,10.2,14.3s9.7-0.2,9.7-0.2l0,0c0.7,0.2,1.5,0.2,2.2,0.2c5.7,0,10.3-4.4,10.7-10C41.7,30.9,45.3,26.9,45.3,22.1z"
	/>
</svg>
