<?xml version="1.0" encoding="utf-8"?>
<!-- Generator: Adobe Illustrator 19.0.0, SVG Export Plug-In . SVG Version: 6.00 Build 0)  -->
<svg version="1.1" baseProfile="tiny" id="Layer_1" xmlns="http://www.w3.org/2000/svg" xmlns:xlink="http://www.w3.org/1999/xlink"
	 x="0px" y="0px" viewBox="0 0 48 48" xml:space="preserve">
<rect x="-0.1" y="0.1" fill="none" width="48" height="48"/>
<path id="XMLID_234_" fill="#FFFFFF" d="M41.3,14.5l-6.4-6.4c-0.7-0.7-1.8-0.7-2.5,0c-0.7,0.7-0.7,1.8,0,2.5l5.2,4.6L32.3,20h-8.7
	l7.8-11.3c0.5-0.8,0.3-1.6-0.5-2.1C30.1,6,29,6.3,28.5,7.1l-6.7,10.2c-0.1-2-1.8-3.5-3.8-3.5c-2.1,0-3.8,1.2-3.8,3.3
	c0,1.5,0.9,2.9,2.1,2.9H7.4c-1,0-1.7,1-1.7,2c0,1,0.8,2,1.7,2H31v16c0,1,1,1.7,2,1.7s2-0.8,2-1.7V23.5l6.4-6.5
	C42.1,16.3,41.9,15.2,41.3,14.5z"/>
</svg>
