<?xml version="1.0" encoding="utf-8"?>
<!-- Generator: Adobe Illustrator 19.0.0, SVG Export Plug-In . SVG Version: 6.00 Build 0)  -->
<svg version="1.1" baseProfile="tiny" id="Layer_1" xmlns="http://www.w3.org/2000/svg" xmlns:xlink="http://www.w3.org/1999/xlink"
	 x="0px" y="0px" viewBox="0 0 64 64" xml:space="preserve">
<rect x="0.2" y="-0.4" fill="none" width="64" height="64"/>
<g>
	<path id="Magni_1_" fill="#FFFFFF" d="M43,10c-9-9.1-23.6-9.1-32.5,0c-9,9.1-9,24,0,33.1c7.9,8.1,20.2,9,29.2,2.8l13.4,13.7
		c1.2,1.2,3.3,0.2,5.2-1.7l0.2-0.2c1.9-1.9,2.9-4.1,1.7-5.3L46.5,38.4C51.7,29.4,50.5,17.7,43,10z M38.9,39
		c-6.7,6.9-17.7,6.8-24.4,0c-6.7-6.8-6.7-18,0-24.8c6.7-6.9,17.7-6.8,24.4,0C45.6,21,45.6,32.1,38.9,39z"/>
	<g id="XMLID_67_">
		<g id="XMLID_118_">
			<path id="XMLID_230_" fill="#FFFFFF" d="M26.7,38c-6.3,0-11.5-5.2-11.5-11.5c0-6.3,5.2-11.5,11.5-11.5c6.3,0,11.5,5.2,11.5,11.5
				C38.2,32.8,33,38,26.7,38z M26.7,17c-5.2,0-9.5,4.2-9.5,9.5c0,5.2,4.2,9.5,9.5,9.5c5.2,0,9.5-4.2,9.5-9.5
				C36.2,21.3,31.9,17,26.7,17z"/>
		</g>
		<g id="XMLID_82_">
			<rect id="XMLID_115_" x="26" y="12" fill="#FFFFFF" width="2" height="6"/>
		</g>
		<g id="XMLID_77_">
			<rect id="XMLID_80_" x="26" y="33" fill="#FFFFFF" width="2" height="7"/>
		</g>
		<g id="XMLID_73_">
			<rect id="XMLID_76_" x="34" y="25" fill="#FFFFFF" width="5" height="3"/>
		</g>
		<g id="XMLID_68_">
			<rect id="XMLID_71_" x="13" y="25" fill="#FFFFFF" width="6" height="3"/>
		</g>
	</g>
</g>
</svg>
