<?xml version="1.0" encoding="utf-8"?>
<!-- Generator: Adobe Illustrator 19.0.0, SVG Export Plug-In . SVG Version: 6.00 Build 0)  -->
<svg version="1.1" baseProfile="tiny" id="Layer_1" xmlns="http://www.w3.org/2000/svg" xmlns:xlink="http://www.w3.org/1999/xlink"
	 x="0px" y="0px" viewBox="0 0 64 64" xml:space="preserve">
<rect x="-0.1" y="0" fill="none" width="64" height="64"/>
<g id="XMLID_84_">
	<polygon id="XMLID_97_" fill="#FFFFFF" points="32.9,17.1 32.9,18.1 53.3,14.1 59.2,43.1 32,51.1 4.7,43.1 10.8,14.1 31.4,18.2 
		31.4,17.1 9.3,12.7 1.9,44.7 32.3,53.7 62.4,44.7 55,12.7 	"/>
	<path id="XMLID_89_" fill="#FFFFFF" d="M32.9,14.8c0,0,0.7,37.8,0.7,34.2c0-3.7,23.4-8,23.4-8l-5.5-30.6
		C51.6,10.4,36.3,11.8,32.9,14.8z"/>
	<path id="XMLID_88_" fill="#FFFFFF" d="M31.5,14.8c0,0-0.7,37.8-0.7,34.2c0-3.7-23.4-8-23.4-8l5.5-30.6
		C12.8,10.4,28.1,11.8,31.5,14.8z"/>
</g>
</svg>
