<?xml version="1.0" encoding="utf-8"?>
<!-- Generator: Adobe Illustrator 19.0.0, SVG Export Plug-In . SVG Version: 6.00 Build 0)  -->
<svg version="1.1" id="Layer_1" xmlns="http://www.w3.org/2000/svg" xmlns:xlink="http://www.w3.org/1999/xlink" x="0px" y="0px"
	 viewBox="0 0 48 48" enable-background="new 0 0 48 48" xml:space="preserve">
<path fill="#868686" d="M32.441,18.604v-7.489c0-4.12-3.337-7.458-7.455-7.458h-2.304c-4.119,0-7.457,3.338-7.457,7.458v7.489
	c-2.047,0.813-3.498,2.806-3.498,5.143v13.143c0,3.057,2.478,5.535,5.535,5.535h13.142c3.057,0,5.534-2.479,5.534-5.535V23.746
	C35.938,21.411,34.489,19.417,32.441,18.604z M26.429,36.042h-5.188l1.867-6.376c-1.075-0.315-1.867-1.299-1.867-2.481
	c0-1.432,1.16-2.592,2.594-2.592c1.432,0,2.594,1.16,2.594,2.592c0,1.182-0.791,2.165-1.869,2.481L26.429,36.042z M29.852,18.212
	H17.814v-4.639c0-3.545,0.69-6.421,3.57-6.421h5.188c2.877,0,3.279,2.876,3.279,6.421V18.212z"/>
</svg>
