<?xml version="1.0" encoding="utf-8"?>
<!-- Generator: Adobe Illustrator 19.0.0, SVG Export Plug-In . SVG Version: 6.00 Build 0)  -->
<svg version="1.1" baseProfile="tiny" id="Layer_1" xmlns="http://www.w3.org/2000/svg" xmlns:xlink="http://www.w3.org/1999/xlink"
	 x="0px" y="0px" viewBox="0 0 48 48" xml:space="preserve">
<path id="Magni_1_" fill="#575757" d="M14,28.8l-9.6,9.8c-0.8,0.8-0.2,2.4,1.2,3.7l0.1,0.1c1.3,1.4,2.9,2,3.7,1.2l9.4-9.6
	c6.3,4.3,14.9,3.7,20.5-2c6.3-6.4,6.3-16.8,0-23.3c-6.3-6.4-16.5-6.4-22.8,0C11.1,14.3,10.3,22.5,14,28.8z M19.3,11.8
	C24,7,31.7,7,36.4,11.8c4.7,4.8,4.7,12.6,0,17.4C31.7,34,24,34,19.3,29.2C14.6,24.4,14.6,16.6,19.3,11.8z"/>
<rect fill="none" width="48" height="48"/>
</svg>
