<?xml version="1.0" encoding="utf-8"?>
<!-- Generator: Adobe Illustrator 19.0.0, SVG Export Plug-In . SVG Version: 6.00 Build 0)  -->
<svg version="1.1" baseProfile="tiny" id="Layer_1" xmlns="http://www.w3.org/2000/svg" xmlns:xlink="http://www.w3.org/1999/xlink"
	 x="0px" y="0px" viewBox="0 0 48 48" xml:space="preserve">
<rect x="0" y="0.1" fill="none" width="48" height="48"/>
<path id="XMLID_242_" fill="#FFFFFF" d="M41.6,21c-0.3-1-1.3-1.7-2.3-1.4l-5.2,1.3v-5.9c0.4,0.1,0.9,0.2,1.3,0.2
	c2.4,0,4.3-1.9,4.3-4.3s-1.9-4.3-4.3-4.3s-4.3,1.9-4.3,4.3c0,0.5,0.1,0.9,0.2,1.4L22,13c-0.5,0-0.9,0.2-1.2,0.6l-4.3,4.3
	c-0.8,0.8-0.8,2,0,2.7c0.4,0.4,0.9,0.6,1.4,0.6s1-0.2,1.4-0.6l3.8-3.8l4.2-0.3L20,23.6L6.9,36.7c-0.8,0.8-0.8,2,0,2.7
	C7.3,39.8,7.8,40,8.3,40s1-0.2,1.4-0.6l11.8-11.8l4.8,4.8l-5.9,5.9c-0.8,0.8-0.8,2,0,2.7c0.4,0.4,0.9,0.6,1.4,0.6s1-0.2,1.4-0.6
	l7.3-7.3c0.8-0.8,0.8-2,0-2.7l-6.1-6.1l6.1-6.1v4.6c0,0.6,0.3,1.2,0.7,1.5c0.5,0.4,1.1,0.5,1.7,0.3l7.6-1.9
	C41.2,23.1,41.9,22,41.6,21z"/>
</svg>
