<?xml version="1.0" encoding="utf-8"?>
<!-- Generator: Adobe Illustrator 19.0.0, SVG Export Plug-In . SVG Version: 6.00 Build 0)  -->
<svg version="1.1" baseProfile="tiny" id="Layer_1" xmlns="http://www.w3.org/2000/svg" xmlns:xlink="http://www.w3.org/1999/xlink"
	 x="0px" y="0px" viewBox="0 0 48 48" xml:space="preserve">
<rect fill="none" width="48" height="48"/>
<path id="XMLID_781_" fill="#FFFFFF" d="M31,28h-9V14.8c1-0.6,3-2.2,3-4.1c0-2.4-1.9-4.3-4.3-4.3s-4.3,1.9-4.3,4.3
	c0,1.6,0.6,3,2,3.8c0,0-0.3,0-0.3,0v15.1c0,1,1.3,2.4,2.3,2.4H28v8.2c0,1,1,1.8,2,1.8s2-0.8,2-1.8V29.6C32,28.6,31.9,28,31,28z"/>
</svg>
