<?xml version="1.0" encoding="utf-8"?>
<!-- Generator: Adobe Illustrator 19.0.0, SVG Export Plug-In . SVG Version: 6.00 Build 0)  -->
<svg version="1.1" baseProfile="basic" id="Layer_1"
	 xmlns="http://www.w3.org/2000/svg" xmlns:xlink="http://www.w3.org/1999/xlink" x="0px" y="0px" viewBox="0 0 48 48"
	 xml:space="preserve">
<rect x="-0.1" y="0.3" fill="none" width="48" height="48"/>
<g id="XMLID_129_">
	<path id="XMLID_263_" fill="#A3A3A3" d="M23.3,18.9c-5.2,0-9.4,4.2-9.4,9.4s4.2,9.4,9.4,9.4s9.4-4.2,9.4-9.4S28.5,18.9,23.3,18.9z"
		/>
	<path id="XMLID_255_" fill="#A3A3A3" d="M43.9,29.1c-1.7-3-4.3-4.9-7-5.3c-1.9-5.5-7-9.5-13.1-9.8L3.1,6.5L2,11.2l10,8.4
		c-1.9,2.4-3,5.5-3,8.8c0,7.9,6.4,14.4,14.4,14.4c3.7,0,7.1-1.4,9.7-3.8c2.7,2.7,6.4,3.6,9.2,2.1C45.7,39,46.5,33.7,43.9,29.1z
		 M23.3,39.8c-6.3,0-11.4-5.1-11.4-11.4c0-6.3,5.1-11.4,11.4-11.4c6.3,0,11.4,5.1,11.4,11.4C34.7,34.6,29.6,39.8,23.3,39.8z
		 M40.2,36.7c-1.1,0-2-0.9-2-2c0-1.1,0.9-2,2-2c1.1,0,2,0.9,2,2C42.2,35.8,41.3,36.7,40.2,36.7z"/>
</g>
</svg>
